<svg xmlns="http://www.w3.org/2000/svg" width="38" height="38" viewBox="0 0 38 38">
  <defs>
    <style>
      .cls-1 {
        fill: #212121;
        opacity: 0.75;
      }
    </style>
  </defs>
  <path id="Icon_weather-moon-alt-waxing-gibbous-2" data-name="Icon weather-moon-alt-waxing-gibbous-2" class="cls-1" d="M42.488,22.82a18.718,18.718,0,0,0-1.5-7.377,19.179,19.179,0,0,0-4.052-6.06A19.2,19.2,0,0,0,23.5,3.828a18.658,18.658,0,0,0-7.377,1.5,19.256,19.256,0,0,0-6.077,4.052A19.2,19.2,0,0,0,4.488,22.82,18.658,18.658,0,0,0,5.99,30.2a19.256,19.256,0,0,0,4.052,6.077,18.613,18.613,0,0,0,6.077,4.052,18.862,18.862,0,0,0,14.754,0,19.179,19.179,0,0,0,6.06-4.052A18.613,18.613,0,0,0,40.986,30.2,18.718,18.718,0,0,0,42.488,22.82Zm-13.876,0q0,10.509-4.085,16.966c-.253.017-.591.017-1.047.017a16.609,16.609,0,0,1-6.6-1.351,17.067,17.067,0,0,1-5.419-3.629A17.351,17.351,0,0,1,7.831,29.4,16.322,16.322,0,0,1,6.48,22.8a16.588,16.588,0,0,1,1.351-6.584A17.067,17.067,0,0,1,11.46,10.8a17.351,17.351,0,0,1,5.419-3.629,16.322,16.322,0,0,1,6.6-1.351c.388,0,.709,0,.912.017A35.9,35.9,0,0,1,28.612,22.82Z" transform="translate(-4.488 -3.828)"/>
</svg>
