<svg xmlns="http://www.w3.org/2000/svg" width="59.253" height="43.8" viewBox="0 0 59.253 43.8">
  <defs>
    <style>
      .cls-1 {
        fill: #04b1fe;
      }
    </style>
  </defs>
  <path id="Path_871" data-name="Path 871" class="cls-1" d="M9.208,9.507C14.342,5.382,22.451,4.688,22.8,4.655a1.294,1.294,0,0,1,1.273.761c.008.017.463,1.331.9,2.6A33.193,33.193,0,0,0,14.747,11.5a2.116,2.116,0,0,0,1.066,3.943,2.042,2.042,0,0,0,1.058-.289,30.435,30.435,0,0,1,13.747-3.414,30.448,30.448,0,0,1,13.755,3.414A2.115,2.115,0,0,0,46.506,11.5,33.279,33.279,0,0,0,36.247,8c.455-1.281.926-2.571.934-2.587a1.282,1.282,0,0,1,1.273-.761c.347.033,8.456.727,13.656,4.91,2.72,2.5,8.142,17.186,8.142,29.866a1.3,1.3,0,0,1-.165.637c-3.753,6.58-13.97,8.308-16.293,8.382h-.041a1.289,1.289,0,0,1-1.042-.529l-2.521-3.414a25.832,25.832,0,0,0,8.622-3.546,2.12,2.12,0,0,0-2.5-3.422c-.074.058-5.464,3.827-15.681,3.827-10.259,0-15.632-3.786-15.681-3.827a2.133,2.133,0,0,0-2.959.471,2.111,2.111,0,0,0,.455,2.943A25.338,25.338,0,0,0,21.029,44.5l-2.488,3.422a1.289,1.289,0,0,1-1.042.529h-.041c-2.323-.074-12.54-1.8-16.293-8.382A1.3,1.3,0,0,1,1,39.431C1,26.751,6.423,12.07,9.208,9.507Zm29.883,25.51c2.339,0,4.232-2.364,4.232-5.29s-1.893-5.29-4.232-5.29-4.232,2.364-4.232,5.29S36.752,35.017,39.091,35.017Zm-16.929,0c2.339,0,4.232-2.364,4.232-5.29s-1.893-5.29-4.232-5.29-4.232,2.364-4.232,5.29S19.822,35.017,22.162,35.017Zm0,0" transform="translate(-1 -4.65)"/>
</svg>
