<svg xmlns="http://www.w3.org/2000/svg" width="43.8" height="43.816" viewBox="0 0 43.8 43.816">
  <defs>
    <style>
      .cls-1 {
        fill: #04b1fe;
      }
    </style>
  </defs>
  <path id="githubWhite" class="cls-1" d="M24.905,3a22.278,22.278,0,0,0-5.3,43.816,3.13,3.13,0,0,1-.173-1.079v-3.8H16.676A3.8,3.8,0,0,1,13.2,40.066c-.712-1.356-.841-3.42-2.618-4.686-.529-.419-.129-.9.477-.822a5.715,5.715,0,0,1,2.93,2.259A2.8,2.8,0,0,0,16.9,38.244a20.2,20.2,0,0,0,3.089-.225,6.98,6.98,0,0,1,2.895-3.637c-7.29-.772-10.773-4.458-10.773-9.475a9.188,9.188,0,0,1,2.44-6c-.5-1.739-1.134-5.3.192-6.649A7.586,7.586,0,0,1,20.494,15a16.311,16.311,0,0,1,10.656,0A7.577,7.577,0,0,1,36.9,12.248c1.334,1.356.693,4.929.186,6.663a9.171,9.171,0,0,1,2.418,6c0,5-3.481,8.684-10.762,9.453a7.829,7.829,0,0,1,3.467,6.3v5.072a3.376,3.376,0,0,1-.063.5A22.291,22.291,0,0,0,24.905,3Zm0,0" transform="translate(-3.002 -3)"/>
</svg>
