<svg xmlns="http://www.w3.org/2000/svg" width="43.8" height="43.8" viewBox="0 0 43.8 43.8">
  <defs>
    <style>
      .cls-1 {
        fill: #04b1fe;
      }
    </style>
  </defs>
  <path id="Path_873" data-name="Path 873" class="cls-1" d="M38.6,0H5.2A5.2,5.2,0,0,0,0,5.2V38.6a5.2,5.2,0,0,0,5.2,5.2H38.6a5.2,5.2,0,0,0,5.2-5.2V5.2A5.2,5.2,0,0,0,38.6,0ZM13.556,16.7V36.513H7.3V16.7ZM7.3,10.917A2.779,2.779,0,0,1,10.43,8.344a2.822,2.822,0,0,1,3.129,2.573,2.776,2.776,0,0,1-3.129,2.639A2.822,2.822,0,0,1,7.3,10.917ZM36.5,36.5H30.244V26.072a3.748,3.748,0,0,0-3.652-4.213H26.51c-2.527,0-3.559,2.146-3.559,4.213V36.5H16.7V16.7h6.244v2.655A7.81,7.81,0,0,1,29,16.7c4.142,0,7.5,2.847,7.5,8.615Zm0,0"/>
</svg>
