<svg xmlns="http://www.w3.org/2000/svg" width="53.905" height="43.8" viewBox="0 0 53.905 43.8">
  <defs>
    <style>
      .cls-1 {
        fill: #04b1fe;
      }
    </style>
  </defs>
  <path id="Path_872" data-name="Path 872" class="cls-1" d="M54.17,8.3a22.215,22.215,0,0,1-6.353,1.744A11.119,11.119,0,0,0,52.681,3.92,22.148,22.148,0,0,1,45.654,6.6,11.067,11.067,0,0,0,26.811,16.69,31.4,31.4,0,0,1,4.018,5.129,11.076,11.076,0,0,0,7.441,19.9,10.964,10.964,0,0,1,2.43,18.517v.14A11.069,11.069,0,0,0,11.3,29.5a10.962,10.962,0,0,1-2.913.387,10.825,10.825,0,0,1-2.082-.2,11.064,11.064,0,0,0,10.327,7.677A22.134,22.134,0,0,1,2.9,42.1a23.088,23.088,0,0,1-2.633-.148,31.3,31.3,0,0,0,16.951,4.962c20.341,0,31.466-16.852,31.466-31.457,0-.485-.008-.963-.033-1.44A22.125,22.125,0,0,0,54.17,8.3" transform="translate(-0.266 -3.113)"/>
</svg>
